999
libcadmapper 8520a52
  0
SECTION
  2
HEADER
  9
$ACADVER
  1
AC1018
  9
$ACADMAINTVER
 70
104
  9
$DWGCODEPAGE
  3
ANSI_1252
  9
$LASTSAVEDBY
  1
unknown
  9
$INSBASE
 10
0.0
 20
0.0
 30
0.0
  9
$EXTMIN
 10
1e+20
 20
1e+20
 30
1e+20
  9
$EXTMAX
 10
-1e+20
 20
-1e+20
 30
-1e+20
  9
$LIMMIN
 10
0.0
 20
0.0
  9
$LIMMAX
 10
12.0
 20
9.0
  9
$ORTHOMODE
 70
0
  9
$REGENMODE
 70
1
  9
$FILLMODE
 70
1
  9
$QTEXTMODE
 70
0
  9
$MIRRTEXT
 70
0
  9
$LTSCALE
 40
1.0
  9
$ATTMODE
 70
1
  9
$TEXTSIZE
 40
0.2
  9
$TRACEWID
 40
0.05
  9
$TEXTSTYLE
  7
Notes
  9
$CLAYER
  8
0
  9
$CELTYPE
  6
ByLayer
  9
$CECOLOR
 62
256
  9
$CELTSCALE
 40
1.0
  9
$DISPSILH
 70
0
  9
$DIMSCALE
 40
1.0
  9
$DIMASZ
 40
3.0
  9
$DIMEXO
 40
1.5
  9
$DIMDLI
 40
6.0
  9
$DIMRND
 40
0.0
  9
$DIMDLE
 40
0.0
  9
$DIMEXE
 40
3.0
  9
$DIMTP
 40
0.0
  9
$DIMTM
 40
0.0
  9
$DIMTXT
 40
3.0
  9
$DIMCEN
 40
3.0
  9
$DIMTSZ
 40
0.0
  9
$DIMTOL
 70
0
  9
$DIMLIM
 70
0
  9
$DIMTIH
 70
0
  9
$DIMTOH
 70
0
  9
$DIMSE1
 70
0
  9
$DIMSE2
 70
0
  9
$DIMTAD
 70
1
  9
$DIMZIN
 70
3
  9
$DIMBLK
  1

  9
$DIMASO
 70
1
  9
$DIMSHO
 70
1
  9
$DIMPOST
  1

  9
$DIMAPOST
  1

  9
$DIMALT
 70
0
  9
$DIMALTD
 70
2
  9
$DIMALTF
 40
25.4
  9
$DIMLFAC
 40
1.0
  9
$DIMTOFL
 70
0
  9
$DIMTVP
 40
0.0
  9
$DIMTIX
 70
0
  9
$DIMSOXD
 70
0
  9
$DIMSAH
 70
0
  9
$DIMBLK1
  1

  9
$DIMBLK2
  1

  9
$DIMSTYLE
  2
Civil-Metric
  9
$DIMCLRD
 70
0
  9
$DIMCLRE
 70
0
  9
$DIMCLRT
 70
0
  9
$DIMTFAC
 40
1.0
  9
$DIMGAP
 40
2.0
  9
$DIMJUST
 70
0
  9
$DIMSD1
 70
0
  9
$DIMSD2
 70
0
  9
$DIMTOLJ
 70
1
  9
$DIMTZIN
 70
0
  9
$DIMALTZ
 70
0
  9
$DIMALTTZ
 70
0
  9
$DIMUPT
 70
0
  9
$DIMDEC
 70
2
  9
$DIMTDEC
 70
2
  9
$DIMALTU
 70
2
  9
$DIMALTTD
 70
2
  9
$DIMTXSTY
  7
Standard
  9
$DIMAUNIT
 70
0
  9
$DIMADEC
 70
2
  9
$DIMALTRND
 40
0.0
  9
$DIMAZIN
 70
2
  9
$DIMDSEP
 70
46
  9
$DIMATFIT
 70
3
  9
$DIMFRAC
 70
1
  9
$DIMLDRBLK
  1

  9
$DIMLUNIT
 70
2
  9
$DIMLWD
 70
-2
  9
$DIMLWE
 70
-2
  9
$DIMTMOVE
 70
0
  9
$LUNITS
 70
2
  9
$LUPREC
 70
4
  9
$SKETCHINC
 40
0.1
  9
$FILLETRAD
 40
0.0
  9
$AUNITS
 70
4
  9
$AUPREC
 70
5
  9
$MENU
  1
.
  9
$ELEVATION
 40
0.0
  9
$PELEVATION
 40
0.0
  9
$THICKNESS
 40
0.0
  9
$LIMCHECK
 70
0
  9
$CHAMFERA
 40
0.0
  9
$CHAMFERB
 40
0.0
  9
$CHAMFERC
 40
0.0
  9
$CHAMFERD
 40
0.0
  9
$SKPOLY
 70
0
  9
$TDCREATE
 40
2455631.34653463
  9
$TDUPDATE
 40
2458141.271863426
  9
$TDINDWG
 40
0.0
  9
$TDUSRTIMER
 40
0.0
  9
$USRTIMER
 70
1
  9
$ANGBASE
 50
0.0
  9
$ANGDIR
 70
0
  9
$PDMODE
 70
0
  9
$PDSIZE
 40
0.0
  9
$PLINEWID
 40
0.0
  9
$SPLFRAME
 70
0
  9
$SPLINETYPE
 70
6
  9
$SPLINESEGS
 70
8
  9
$HANDSEED
  5
13fd
  9
$SURFTAB1
 70
6
  9
$SURFTAB2
 70
6
  9
$SURFTYPE
 70
6
  9
$SURFU
 70
6
  9
$SURFV
 70
6
  9
$UCSBASE
  2

  9
$UCSNAME
  2

  9
$UCSORG
 10
0.0
 20
0.0
 30
0.0
  9
$UCSXDIR
 10
1.0
 20
0.0
 30
0.0
  9
$UCSYDIR
 10
0.0
 20
1.0
 30
0.0
  9
$UCSORTHOREF
  2

  9
$UCSORTHOVIEW
 70
0
  9
$UCSORGTOP
 10
0.0
 20
0.0
 30
0.0
  9
$UCSORGBOTTOM
 10
0.0
 20
0.0
 30
0.0
  9
$UCSORGLEFT
 10
0.0
 20
0.0
 30
0.0
  9
$UCSORGRIGHT
 10
0.0
 20
0.0
 30
0.0
  9
$UCSORGFRONT
 10
0.0
 20
0.0
 30
0.0
  9
$UCSORGBACK
 10
0.0
 20
0.0
 30
0.0
  9
$PUCSBASE
  2

  9
$PUCSNAME
  2

  9
$PUCSORG
 10
0.0
 20
0.0
 30
0.0
  9
$PUCSXDIR
 10
1.0
 20
0.0
 30
0.0
  9
$PUCSYDIR
 10
0.0
 20
1.0
 30
0.0
  9
$PUCSORTHOREF
  2

  9
$PUCSORTHOVIEW
 70
0
  9
$PUCSORGTOP
 10
0.0
 20
0.0
 30
0.0
  9
$PUCSORGBOTTOM
 10
0.0
 20
0.0
 30
0.0
  9
$PUCSORGLEFT
 10
0.0
 20
0.0
 30
0.0
  9
$PUCSORGRIGHT
 10
0.0
 20
0.0
 30
0.0
  9
$PUCSORGFRONT
 10
0.0
 20
0.0
 30
0.0
  9
$PUCSORGBACK
 10
0.0
 20
0.0
 30
0.0
  9
$USERI1
 70
0
  9
$USERI2
 70
0
  9
$USERI3
 70
0
  9
$USERI4
 70
0
  9
$USERI5
 70
0
  9
$USERR1
 40
0.0
  9
$USERR2
 40
0.0
  9
$USERR3
 40
0.0
  9
$USERR4
 40
0.0
  9
$USERR5
 40
0.0
  9
$WORLDVIEW
 70
1
  9
$SHADEDGE
 70
3
  9
$SHADEDIF
 70
70
  9
$TILEMODE
 70
1
  9
$MAXACTVP
 70
64
  9
$PINSBASE
 10
0.0
 20
0.0
 30
0.0
  9
$PLIMCHECK
 70
0
  9
$PEXTMIN
 10
0.62886676639706
 20
0.7999999523162842
 30
0.0
  9
$PEXTMAX
 10
9.028866384927335
 20
7.199999570846558
 30
0.0
  9
$PLIMMIN
 10
-0.7005418191744587
 20
-0.2281003861915408
  9
$PLIMMAX
 10
10.29945794052965
 20
8.27189937351257
  9
$UNITMODE
 70
0
  9
$VISRETAIN
 70
1
  9
$PLINEGEN
 70
0
  9
$PSLTSCALE
 70
1
  9
$TREEDEPTH
 70
3020
  9
$CMLSTYLE
  2
Standard
  9
$CMLJUST
 70
0
  9
$CMLSCALE
 40
1.0
  9
$PROXYGRAPHICS
 70
1
  9
$MEASUREMENT
 70
1
  9
$CELWEIGHT
370
-1
  9
$ENDCAPS
280
0
  9
$JOINSTYLE
280
0
  9
$LWDISPLAY
290
0
  9
$INSUNITS
 70
4
  9
$HYPERLINKBASE
  1

  9
$STYLESHEET
  1

  9
$XEDIT
290
1
  9
$CEPSNTYPE
380
0
  9
$PSTYLEMODE
290
1
  9
$FINGERPRINTGUID
  2
{39DB1BDD-BC6C-46D3-A333-DFCC0DC4782D}
  9
$VERSIONGUID
  2
{69EEBB2D-7039-498F-9366-3F994E4A07E7}
  9
$EXTNAMES
290
1
  9
$PSVPSCALE
 40
0.0
  9
$OLESTARTUP
290
0
  9
$SORTENTS
280
127
  9
$INDEXCTL
280
0
  9
$HIDETEXT
280
1
  9
$XCLIPFRAME
290
0
  9
$HALOGAP
280
0
  9
$OBSCOLOR
 70
257
  9
$OBSLTYPE
280
0
  9
$INTERSECTIONDISPLAY
280
0
  9
$INTERSECTIONCOLOR
 70
257
  9
$DIMASSOC
280
2
  9
$PROJECTNAME
  1

  0
ENDSEC
  0
SECTION
  2
CLASSES
  0
CLASS
  1
ACDBDICTIONARYWDFLT
  2
AcDbDictionaryWithDefault
  3
ObjectDBX Classes
 90
0
 91
0
280
0
281
0
  0
CLASS
  1
DICTIONARYVAR
  2
AcDbDictionaryVar
  3
ObjectDBX Classes
 90
0
 91
0
280
0
281
0
  0
CLASS
  1
TABLESTYLE
  2
AcDbTableStyle
  3
ObjectDBX Classes
 90
4095
 91
0
280
0
281
0
  0
CLASS
  1
MATERIAL
  2
AcDbMaterial
  3
ObjectDBX Classes
 90
1153
 91
0
280
0
281
0
  0
CLASS
  1
VISUALSTYLE
  2
AcDbVisualStyle
  3
ObjectDBX Classes
 90
4095
 91
0
280
0
281
0
  0
CLASS
  1
SCALE
  2
AcDbScale
  3
ObjectDBX Classes
 90
1153
 91
0
280
0
281
0
  0
CLASS
  1
MLEADERSTYLE
  2
AcDbMLeaderStyle
  3
ACDB_MLEADERSTYLE_CLASS
 90
4095
 91
0
280
0
281
0
  0
CLASS
  1
CELLSTYLEMAP
  2
AcDbCellStyleMap
  3
ObjectDBX Classes
 90
1152
 91
0
280
0
281
0
  0
CLASS
  1
EXACXREFPANELOBJECT
  2
ExAcXREFPanelObject
  3
EXAC_ESW
 90
1025
 91
0
280
0
281
0
  0
CLASS
  1
NPOCOLLECTION
  2
AcDbImpNonPersistentObjectsCollection
  3
ObjectDBX Classes
 90
1153
 91
0
280
0
281
0
  0
CLASS
  1
LAYER_INDEX
  2
AcDbLayerIndex
  3
ObjectDBX Classes
 90
0
 91
0
280
0
281
0
  0
CLASS
  1
SPATIAL_INDEX
  2
AcDbSpatialIndex
  3
ObjectDBX Classes
 90
0
 91
0
280
0
281
0
  0
CLASS
  1
IDBUFFER
  2
AcDbIdBuffer
  3
ObjectDBX Classes
 90
0
 91
0
280
0
281
0
  0
CLASS
  1
DIMASSOC
  2
AcDbDimAssoc
  3
"AcDbDimAssoc|Product Desc:     AcDim ARX App For Dimension|Company:          Autodesk, Inc.|WEB Address:      www.autodesk.com"
 90
0
 91
0
280
0
281
0
  0
CLASS
  1
IMAGEDEF
  2
AcDbRasterImageDef
  3
ISM
 90
0
 91
0
280
0
281
0
  0
CLASS
  1
RASTERVARIABLES
  2
AcDbRasterVariables
  3
ISM
 90
0
 91
0
280
0
281
0
  0
CLASS
  1
IMAGEDEF_REACTOR
  2
AcDbRasterImageDefReactor
  3
ISM
 90
1
 91
0
280
0
281
0
  0
CLASS
  1
IMAGE
  2
AcDbRasterImage
  3
ISM
 90
2175
 91
0
280
0
281
1
  0
CLASS
  1
PDFDEFINITION
  2
AcDbPdfDefinition
  3
ObjectDBX Classes
 90
1153
 91
0
280
0
281
0
  0
CLASS
  1
PDFUNDERLAY
  2
AcDbPdfReference
  3
ObjectDBX Classes
 90
4095
 91
0
280
0
281
1
  0
CLASS
  1
DWFDEFINITION
  2
AcDbDwfDefinition
  3
ObjectDBX Classes
 90
1153
 91
0
280
0
281
0
  0
CLASS
  1
DWFUNDERLAY
  2
AcDbDwfReference
  3
ObjectDBX Classes
 90
1153
 91
0
280
0
281
1
  0
CLASS
  1
DGNDEFINITION
  2
AcDbDgnDefinition
  3
ObjectDBX Classes
 90
1153
 91
0
280
0
281
0
  0
CLASS
  1
DGNUNDERLAY
  2
AcDbDgnReference
  3
ObjectDBX Classes
 90
1153
 91
0
280
0
281
1
  0
ENDSEC
  0
SECTION
  2
TABLES
  0
TABLE
  2
VPORT
  5
8
330
0
100
AcDbSymbolTable
 70
0
  0
ENDTAB
  0
TABLE
  2
LTYPE
  5
5
330
0
100
AcDbSymbolTable
 70
7
  0
LTYPE
  5
14
330
5
100
AcDbSymbolTableRecord
100
AcDbLinetypeTableRecord
  2
ByBlock
 70
0
  3

 72
65
 73
0
 40
0.0
  0
LTYPE
  5
15
330
5
100
AcDbSymbolTableRecord
100
AcDbLinetypeTableRecord
  2
ByLayer
 70
0
  3

 72
65
 73
0
 40
0.0
  0
LTYPE
  5
16
330
5
100
AcDbSymbolTableRecord
100
AcDbLinetypeTableRecord
  2
Continuous
 70
0
  3
Solid line
 72
65
 73
0
 40
0.0
  0
LTYPE
  5
1B1
330
5
100
AcDbSymbolTableRecord
100
AcDbLinetypeTableRecord
  2
CENTER
 70
0
  3
Center ____ _ ____ _ ____ _ ____ _ ____ _ ____
 72
65
 73
4
 40
2.0
 49
1.25
 74
0
 49
-0.25
 74
0
 49
0.25
 74
0
 49
-0.25
 74
0
  0
LTYPE
  5
1B2
330
5
100
AcDbSymbolTableRecord
100
AcDbLinetypeTableRecord
  2
DASHED
 70
0
  3
Dashed __ __ __ __ __ __ __ __ __ __ __ __ __ _
 72
65
 73
2
 40
0.75
 49
0.5
 74
0
 49
-0.25
 74
0
  0
LTYPE
  5
1B3
330
5
100
AcDbSymbolTableRecord
100
AcDbLinetypeTableRecord
  2
PHANTOM
 70
0
  3
Phantom ______  __  __  ______  __  __  ______
 72
65
 73
6
 40
2.5
 49
1.25
 74
0
 49
-0.25
 74
0
 49
0.25
 74
0
 49
-0.25
 74
0
 49
0.25
 74
0
 49
-0.25
 74
0
  0
LTYPE
  5
39E
330
5
100
AcDbSymbolTableRecord
100
AcDbLinetypeTableRecord
  2
HIDDEN
 70
0
  3
Hidden __ __ __ __ __ __ __ __ __ __ __ __ __ __
 72
65
 73
2
 40
9.525
 49
6.35
 74
0
 49
-3.175
 74
0
  0
ENDTAB
  0
TABLE
  2
LAYER
  5
2
330
0
100
AcDbSymbolTable
 70
3
  0
LAYER
  5
10
330
2
100
AcDbSymbolTableRecord
100
AcDbLayerTableRecord
  2
0
 70
0
 62
7
  6
Continuous
370
-3
390
4DA
  0
LAYER
  5
1B4
330
2
100
AcDbSymbolTableRecord
100
AcDbLayerTableRecord
  2
View Port
 70
0
 62
7
  6
Continuous
290
0
370
-3
390
4DA
  0
LAYER
  5
21D
330
2
100
AcDbSymbolTableRecord
100
AcDbLayerTableRecord
  2
Defpoints
 70
0
 62
7
  6
Continuous
290
0
370
-3
390
4DA
  0
ENDTAB
  0
TABLE
  2
STYLE
  5
3
330
0
100
AcDbSymbolTable
 70
3
  0
STYLE
  5
11
330
3
100
AcDbSymbolTableRecord
100
AcDbTextStyleTableRecord
  2
Standard
 70
0
 40
0.0
 41
1.0
 50
0.0
 71
0
 42
0.2
  3
arial.ttf
  4

  0
STYLE
  5
DC
330
3
100
AcDbSymbolTableRecord
100
AcDbTextStyleTableRecord
  2
Annotative
 70
0
 40
0.0
 41
1.0
 50
0.0
 71
0
 42
0.2
  3
arial.ttf
  4

  0
STYLE
  5
178
330
3
100
AcDbSymbolTableRecord
100
AcDbTextStyleTableRecord
  2
Notes
 70
0
 40
3.0
 41
1.0
 50
0.0
 71
0
 42
0.2
  3
arial.ttf
  4

  0
ENDTAB
  0
TABLE
  2
VIEW
  5
6
330
0
100
AcDbSymbolTable
 70
0
  0
ENDTAB
  0
TABLE
  2
UCS
  5
7
330
0
100
AcDbSymbolTable
 70
0
  0
ENDTAB
  0
TABLE
  2
APPID
  5
9
330
0
100
AcDbSymbolTable
 70
11
  0
APPID
  5
12
330
9
100
AcDbSymbolTableRecord
100
AcDbRegAppTableRecord
  2
ACAD
 70
0
  0
APPID
  5
DD
330
9
100
AcDbSymbolTableRecord
100
AcDbRegAppTableRecord
  2
AcadAnnoPO
 70
0
  0
APPID
  5
DE
330
9
100
AcDbSymbolTableRecord
100
AcDbRegAppTableRecord
  2
AcadAnnotative
 70
0
  0
APPID
  5
DF
330
9
100
AcDbSymbolTableRecord
100
AcDbRegAppTableRecord
  2
ACAD_DSTYLE_DIMJAG
 70
0
  0
APPID
  5
E0
330
9
100
AcDbSymbolTableRecord
100
AcDbRegAppTableRecord
  2
ACAD_DSTYLE_DIMTALN
 70
0
  0
APPID
  5
107
330
9
100
AcDbSymbolTableRecord
100
AcDbRegAppTableRecord
  2
ACAD_MLEADERVER
 70
0
  0
APPID
  5
1B5
330
9
100
AcDbSymbolTableRecord
100
AcDbRegAppTableRecord
  2
AcAecLayerStandard
 70
0
  0
APPID
  5
1BA
330
9
100
AcDbSymbolTableRecord
100
AcDbRegAppTableRecord
  2
ACAD_EXEMPT_FROM_CAD_STANDARDS
 70
0
  0
APPID
  5
237
330
9
100
AcDbSymbolTableRecord
100
AcDbRegAppTableRecord
  2
ACAD_DSTYLE_DIMBREAK
 70
0
  0
APPID
  5
28E
330
9
100
AcDbSymbolTableRecord
100
AcDbRegAppTableRecord
  2
ACAD_PSEXT
 70
0
  0
APPID
  5
49A
330
9
100
AcDbSymbolTableRecord
100
AcDbRegAppTableRecord
  2
HATCHBACKGROUNDCOLOR
 70
0
  0
ENDTAB
  0
TABLE
  2
DIMSTYLE
  5
A
330
0
100
AcDbSymbolTable
 70
3
100
AcDbDimStyleTable
 71
3
340
242
340
27
340
E1
  0
DIMSTYLE
105
27
330
A
100
AcDbSymbolTableRecord
100
AcDbDimStyleTableRecord
  2
Standard
 70
0
 41
3.0
 42
2.0
 43
9.0
 44
5.0
140
3.0
141
2.0
147
2.0
340
11
1001
ACAD_DSTYLE_DIMJAG
1070
388
1040
38.0
1001
ACAD_DSTYLE_DIMBREAK
1070
391
1040
90.0
1001
ACAD_DSTYLE_DIMTALN
1070
392
1070
0
  0
DIMSTYLE
105
E1
330
A
100
AcDbSymbolTableRecord
100
AcDbDimStyleTableRecord
  2
Annotative
 70
0
 40
0.0
 41
3.0
 42
2.5
 43
10.0
 44
5.0
140
3.0
141
2.0
147
2.0
340
11
1001
AcadAnnotative
1000
AnnotativeData
1002
{
1070
1
1070
1
1002
}
1001
ACAD_DSTYLE_DIMJAG
1070
388
1040
38.0
1001
ACAD_DSTYLE_DIMBREAK
1070
391
1040
90.0
1001
ACAD_DSTYLE_DIMTALN
1070
392
1070
0
  0
DIMSTYLE
105
242
330
A
100
AcDbSymbolTableRecord
100
AcDbDimStyleTableRecord
  2
Civil-Metric
 70
0
 41
3.0
 42
1.5
 43
6.0
 44
3.0
 73
0
 74
0
 77
1
 78
3
 79
2
140
3.0
141
3.0
147
2.0
179
2
271
2
272
2
276
1
340
11
1001
ACAD_DSTYLE_DIMBREAK
1070
391
1040
3.0
1001
ACAD_DSTYLE_DIMJAG
1070
388
1040
38.0
1001
ACAD_DSTYLE_DIMTALN
1070
392
1070
0
  0
ENDTAB
  0
TABLE
  2
BLOCK_RECORD
  5
1
330
0
100
AcDbSymbolTable
 70
4
  0
BLOCK_RECORD
  5
1F
330
1
100
AcDbSymbolTableRecord
100
AcDbBlockTableRecord
  2
*Model_Space
340
4DF
  0
BLOCK_RECORD
  5
58
330
1
100
AcDbSymbolTableRecord
100
AcDbBlockTableRecord
  2
*Paper_Space
340
4E0
  0
BLOCK_RECORD
  5
238
330
1
100
AcDbSymbolTableRecord
100
AcDbBlockTableRecord
  2
_ArchTick
340
0
  0
BLOCK_RECORD
  5
23C
330
1
100
AcDbSymbolTableRecord
100
AcDbBlockTableRecord
  2
_Open30
340
0
  0
ENDTAB
  0
ENDSEC
  0
SECTION
  2
BLOCKS
  0
BLOCK
  5
5A
330
58
100
AcDbEntity
 67
1
  8
0
100
AcDbBlockBegin
  2
*Paper_Space
 70
0
 10
0.0
 20
0.0
 30
0.0
  3
*Paper_Space
  1

  0
ENDBLK
  5
5B
330
58
100
AcDbEntity
 67
1
  8
0
100
AcDbBlockEnd
  0
BLOCK
  5
20
330
1F
100
AcDbEntity
  8
0
100
AcDbBlockBegin
  2
*Model_Space
 70
0
 10
0.0
 20
0.0
 30
0.0
  3
*Model_Space
  1

  0
ENDBLK
  5
21
330
1F
100
AcDbEntity
  8
0
100
AcDbBlockEnd
  0
BLOCK
  5
23A
330
238
100
AcDbEntity
  8
0
100
AcDbBlockBegin
  2
_ArchTick
 70
0
 10
0.0
 20
0.0
 30
0.0
  3
_ArchTick
  1

  0
LWPOLYLINE
  5
239
330
238
100
AcDbEntity
  8
0
  6
ByBlock
 62
0
100
AcDbPolyline
 90
2
 70
0
 43
0.15
 10
-0.5
 20
-0.5
 10
0.5
 20
0.5
  0
ENDBLK
  5
23B
330
238
100
AcDbEntity
  8
0
100
AcDbBlockEnd
  0
BLOCK
  5
240
330
23C
100
AcDbEntity
  8
0
100
AcDbBlockBegin
  2
_Open30
 70
0
 10
0.0
 20
0.0
 30
0.0
  3
_Open30
  1

  0
LINE
  5
23D
330
23C
100
AcDbEntity
  8
0
  6
ByBlock
 62
0
370
-2
100
AcDbLine
 10
-1.0
 20
0.26794919
 30
0.0
 11
0.0
 21
0.0
 31
0.0
  0
LINE
  5
23E
330
23C
100
AcDbEntity
  8
0
  6
ByBlock
 62
0
370
-2
100
AcDbLine
 10
0.0
 20
0.0
 30
0.0
 11
-1.0
 21
-0.26794919
 31
0.0
  0
LINE
  5
23F
330
23C
100
AcDbEntity
  8
0
  6
ByBlock
 62
0
370
-2
100
AcDbLine
 10
0.0
 20
0.0
 30
0.0
 11
-1.0
 21
0.0
 31
0.0
  0
ENDBLK
  5
241
330
23C
100
AcDbEntity
  8
0
100
AcDbBlockEnd
  0
ENDSEC
  0
SECTION
  2
ENTITIES
  0
MESH
  5
1389
330
1F
  100
AcDbEntity
8
buildings
  100
AcDbSubDMesh
71
2
72
0
91
0
92
12
10
81.2331
20
72.0446
30
3.0000
10
81.8534
20
78.0221
30
3.0000
10
81.9744
20
79.1638
30
3.0000
10
81.2272
20
79.2406
30
3.0000
10
70.2041
20
80.3783
30
3.0000
10
69.4726
20
73.3426
30
3.0000
10
81.2331
20
72.0446
30
0.0000
10
81.8534
20
78.0221
30
0.0000
10
81.9744
20
79.1638
30
0.0000
10
81.2272
20
79.2406
30
0.0000
10
70.2041
20
80.3783
30
0.0000
10
69.4726
20
73.3426
30
0.0000
93
62
90
3
90
5
90
3
90
4
90
3
90
11
90
10
90
9
90
3
90
3
90
5
90
0
90
3
90
9
90
6
90
11
90
3
90
1
90
2
90
3
90
3
90
7
90
9
90
8
90
3
90
0
90
1
90
3
90
3
90
6
90
9
90
7
90
4
90
1
90
0
90
6
90
7
90
4
90
2
90
1
90
7
90
8
90
4
90
3
90
2
90
8
90
9
90
4
90
4
90
3
90
9
90
10
90
4
90
5
90
4
90
10
90
11
90
4
90
0
90
5
90
11
90
6
94
0
95
0
0
LWPOLYLINE
  5
138a
330
1F
  100
AcDbEntity
8
paths
  100
AcDbPolyline
70
0
38
0.0000
90
32
10
145.0418
20
218.8535
10
147.5533
20
223.7447
10
149.5696
20
228.1750
10
157.3841
20
294.8686
10
159.7517
20
311.8190
10
158.6210
20
322.0254
10
156.3867
20
327.2825
10
147.0959
20
334.6366
10
135.6169
20
340.1624
10
111.0865
20
344.3601
10
96.0973
20
344.5758
10
75.5678
20
340.8974
10
62.8557
20
336.0596
10
56.4626
20
331.9196
10
48.9028
20
320.3092
10
48.7762
20
316.5892
10
47.1924
20
297.9505
10
47.0975
20
294.5647
10
46.2674
20
279.5168
10
46.3712
20
254.1190
10
46.0747
20
228.7325
10
46.1289
20
221.4048
10
47.4776
20
215.7909
10
52.4047
20
211.5754
10
78.2825
20
209.1367
10
105.2547
20
205.7736
10
114.2196
20
204.5260
10
126.3029
20
202.8279
10
145.7240
20
200.8587
10
149.1110
20
203.3702
10
149.3099
20
210.4580
10
145.0418
20
218.8535
  0
MESH
  5
138b
330
1F
  100
AcDbEntity
8
buildings
  100
AcDbSubDMesh
71
2
72
0
91
0
92
8
10
99.1163
20
173.9508
30
3.0000
10
99.8752
20
181.4326
30
3.0000
10
89.3986
20
182.4805
30
3.0000
10
88.6399
20
175.0081
30
3.0000
10
99.1163
20
173.9508
30
0.0000
10
99.8752
20
181.4326
30
0.0000
10
89.3986
20
182.4805
30
0.0000
10
88.6399
20
175.0081
30
0.0000
93
36
90
3
90
2
90
3
90
0
90
3
90
6
90
4
90
7
90
3
90
0
90
1
90
2
90
3
90
4
90
6
90
5
90
4
90
1
90
0
90
4
90
5
90
4
90
2
90
1
90
5
90
6
90
4
90
3
90
2
90
6
90
7
90
4
90
0
90
3
90
7
90
4
94
0
95
0
0
LWPOLYLINE
  5
138c
330
1F
  100
AcDbEntity
8
paths
  100
AcDbPolyline
70
0
38
0.0000
90
2
10
47.1924
20
297.9505
10
52.5348
20
297.9589
0
LWPOLYLINE
  5
138d
330
1F
  100
AcDbEntity
8
paths
  100
AcDbPolyline
70
0
38
0.0000
90
2
10
52.5348
20
297.9589
10
65.0541
20
298.3060
0
LWPOLYLINE
  5
138e
330
1F
  100
AcDbEntity
8
paths
  100
AcDbPolyline
70
0
38
0.0000
90
3
10
341.5911
20
271.1831
10
331.7012
20
272.1396
10
324.1514
20
273.0497
0
LWPOLYLINE
  5
138f
330
1F
  100
AcDbEntity
8
water
  100
AcDbPolyline
70
0
38
0.0000
90
50
10
52.4095
20
298.7816
10
64.9006
20
299.1853
10
67.4596
20
307.0913
10
76.2890
20
311.5912
10
84.2919
20
316.7752
10
101.6338
20
322.9354
10
108.2700
20
320.1334
10
111.8843
20
314.6142
10
113.6810
20
304.6032
10
109.7918
20
294.7703
10
102.5245
20
288.8303
10
94.9219
20
286.0088
10
89.2799
20
286.9584
10
82.5519
20
289.6605
10
73.2425
20
289.4748
10
66.8468
20
290.7992
10
64.9411
20
297.4527
10
52.6233
20
297.1466
10
53.1713
20
287.8501
10
54.2076
20
277.1809
10
53.6356
20
264.1924
10
54.1050
20
256.0618
10
55.6227
20
241.9254
10
54.6053
20
234.2182
10
53.4958
20
226.1413
10
56.2548
20
218.9611
10
62.0946
20
215.2785
10
81.4985
20
214.5481
10
110.0797
20
215.3754
10
131.5056
20
218.7492
10
144.0632
20
226.0209
10
147.0400
20
233.2170
10
149.1679
20
247.9679
10
150.6039
20
266.3593
10
152.0314
20
281.2695
10
154.8791
20
299.2024
10
156.3007
20
314.1686
10
155.8190
20
320.2702
10
153.8955
20
325.2300
10
148.3652
20
329.6300
10
137.0281
20
335.1891
10
125.1632
20
338.3333
10
109.4611
20
341.4361
10
92.6057
20
340.1868
10
80.2713
20
337.7029
10
67.8232
20
333.5465
10
59.1906
20
328.1288
10
54.7290
20
318.7867
10
51.6820
20
310.4103
10
52.4095
20
298.7816
0
LWPOLYLINE
  5
1390
330
1F
  100
AcDbEntity
8
paths
  100
AcDbPolyline
70
0
38
0.0000
90
2
10
301.6077
20
8.7025
10
334.1547
20
6.3756
0
LWPOLYLINE
  5
1391
330
1F
  100
AcDbEntity
8
paths
  100
AcDbPolyline
70
0
38
0.0000
90
19
10
206.3194
20
26.6443
10
227.8499
20
24.7739
10
262.2137
20
21.7613
10
265.8049
20
18.5978
10
266.2481
20
17.2076
10
267.0108
20
14.7752
10
267.0302
20
13.3504
10
267.0458
20
12.0560
10
266.4651
20
10.9273
10
265.6645
20
9.3672
10
262.9491
20
5.6733
10
259.8294
20
4.2249
10
255.5989
20
5.7587
10
250.9066
20
8.0221
10
243.8169
20
8.9287
10
231.0020
20
9.4001
10
222.8109
20
9.3973
10
217.0293
20
10.3881
10
202.9971
20
14.5428
0
LWPOLYLINE
  5
1392
330
1F
  100
AcDbEntity
8
paths
  100
AcDbPolyline
70
0
38
0.0000
90
6
10
104.3596
20
347.3694
10
112.1782
20
350.7434
10
123.1378
20
352.0929
10
135.3818
20
348.4447
10
142.5440
20
341.3830
10
147.0959
20
334.6366
  0
MESH
  5
1393
330
1F
  100
AcDbEntity
8
buildings
  100
AcDbSubDMesh
71
2
72
0
91
0
92
20
10
51.0244
20
99.1432
30
3.0000
10
50.4725
20
95.0721
30
3.0000
10
54.3532
20
94.5536
30
3.0000
10
54.6905
20
97.0576
30
3.0000
10
56.0727
20
96.8699
30
3.0000
10
57.5764
20
108.1567
30
3.0000
10
52.9562
20
108.7611
30
3.0000
10
52.5634
20
105.8677
30
3.0000
10
49.2668
20
106.3139
30
3.0000
10
48.3634
20
99.4971
30
3.0000
10
51.0244
20
99.1432
30
0.0000
10
50.4725
20
95.0721
30
0.0000
10
54.3532
20
94.5536
30
0.0000
10
54.6905
20
97.0576
30
0.0000
10
56.0727
20
96.8699
30
0.0000
10
57.5764
20
108.1567
30
0.0000
10
52.9562
20
108.7611
30
0.0000
10
52.5634
20
105.8677
30
0.0000
10
49.2668
20
106.3139
30
0.0000
10
48.3634
20
99.4971
30
0.0000
93
114
90
3
90
7
90
0
90
3
90
3
90
17
90
13
90
10
90
3
90
0
90
8
90
9
90
3
90
10
90
19
90
18
90
3
90
8
90
0
90
7
90
3
90
18
90
17
90
10
90
3
90
0
90
1
90
3
90
3
90
10
90
13
90
11
90
3
90
7
90
5
90
6
90
3
90
17
90
16
90
15
90
3
90
3
90
4
90
7
90
3
90
13
90
17
90
14
90
3
90
7
90
4
90
5
90
3
90
17
90
15
90
14
90
3
90
3
90
1
90
2
90
3
90
13
90
12
90
11
90
4
90
1
90
0
90
10
90
11
90
4
90
2
90
1
90
11
90
12
90
4
90
3
90
2
90
12
90
13
90
4
90
4
90
3
90
13
90
14
90
4
90
5
90
4
90
14
90
15
90
4
90
6
90
5
90
15
90
16
90
4
90
7
90
6
90
16
90
17
90
4
90
8
90
7
90
17
90
18
90
4
90
9
90
8
90
18
90
19
90
4
90
0
90
9
90
19
90
10
94
0
95
0
0
LWPOLYLINE
  5
1394
330
1F
  100
AcDbEntity
8
paths
  100
AcDbPolyline
70
0
38
0.0000
90
11
10
187.8049
20
26.8009
10
194.1167
20
31.4830
10
196.4832
20
31.4724
10
199.3393
20
31.4574
10
206.3194
20
26.6443
10
206.5203
20
20.8485
10
204.8251
20
15.7016
10
202.9971
20
14.5428
10
199.9981
20
12.6348
10
193.0984
20
12.1210
10
186.8192
20
16.7935
0
LWPOLYLINE
  5
1395
330
1F
  100
AcDbEntity
8
paths
  100
AcDbPolyline
70
0
38
0.0000
90
7
10
164.4579
20
49.3415
10
155.7132
20
49.9685
10
147.8177
20
50.1901
10
18.1323
20
64.6917
10
13.5394
20
65.2114
10
5.5474
20
65.1656
10
0.8457
20
36.9331
  0
MESH
  5
1396
330
1F
  100
AcDbEntity
8
buildings
  100
AcDbSubDMesh
71
2
72
0
91
0
92
8
10
41.9855
20
93.2528
30
3.0000
10
42.5693
20
97.1369
30
3.0000
10
39.7321
20
97.5609
30
3.0000
10
39.1410
20
93.6770
30
3.0000
10
41.9855
20
93.2528
30
0.0000
10
42.5693
20
97.1369
30
0.0000
10
39.7321
20
97.5609
30
0.0000
10
39.1410
20
93.6770
30
0.0000
93
36
90
3
90
2
90
3
90
0
90
3
90
6
90
4
90
7
90
3
90
0
90
1
90
2
90
3
90
4
90
6
90
5
90
4
90
1
90
0
90
4
90
5
90
4
90
2
90
1
90
5
90
6
90
4
90
3
90
2
90
6
90
7
90
4
90
0
90
3
90
7
90
4
94
0
95
0
  0
MESH
  5
1397
330
1F
  100
AcDbEntity
8
buildings
  100
AcDbSubDMesh
71
2
72
0
91
0
92
8
10
62.8764
20
74.1234
30
3.0000
10
63.2449
20
78.0042
30
3.0000
10
57.9986
20
78.5051
30
3.0000
10
57.6226
20
74.6245
30
3.0000
10
62.8764
20
74.1234
30
0.0000
10
63.2449
20
78.0042
30
0.0000
10
57.9986
20
78.5051
30
0.0000
10
57.6226
20
74.6245
30
0.0000
93
36
90
3
90
2
90
3
90
0
90
3
90
6
90
4
90
7
90
3
90
0
90
1
90
2
90
3
90
4
90
6
90
5
90
4
90
1
90
0
90
4
90
5
90
4
90
2
90
1
90
5
90
6
90
4
90
3
90
2
90
6
90
7
90
4
90
0
90
3
90
7
90
4
94
0
95
0
  0
MESH
  5
1398
330
1F
  100
AcDbEntity
8
buildings
  100
AcDbSubDMesh
71
2
72
0
91
0
92
8
10
68.2671
20
97.5518
30
3.0000
10
69.0547
20
104.2042
30
3.0000
10
63.7228
20
104.8286
30
3.0000
10
62.9352
20
98.1761
30
3.0000
10
68.2671
20
97.5518
30
0.0000
10
69.0547
20
104.2042
30
0.0000
10
63.7228
20
104.8286
30
0.0000
10
62.9352
20
98.1761
30
0.0000
93
36
90
3
90
2
90
3
90
0
90
3
90
6
90
4
90
7
90
3
90
0
90
1
90
2
90
3
90
4
90
6
90
5
90
4
90
1
90
0
90
4
90
5
90
4
90
2
90
1
90
5
90
6
90
4
90
3
90
2
90
6
90
7
90
4
90
0
90
3
90
7
90
4
94
0
95
0
0
LWPOLYLINE
  5
1399
330
1F
  100
AcDbEntity
8
paths
  100
AcDbPolyline
70
0
38
0.0000
90
2
10
333.9842
20
0.3042
10
333.7050
20
0.0076
  0
MESH
  5
139a
330
1F
  100
AcDbEntity
8
buildings
  100
AcDbSubDMesh
71
2
72
0
91
0
92
8
10
82.2280
20
148.5084
30
3.0000
10
91.4014
20
148.3442
30
3.0000
10
91.5711
20
157.3040
30
3.0000
10
82.3901
20
157.4591
30
3.0000
10
82.2280
20
148.5084
30
0.0000
10
91.4014
20
148.3442
30
0.0000
10
91.5711
20
157.3040
30
0.0000
10
82.3901
20
157.4591
30
0.0000
93
36
90
3
90
3
90
0
90
1
90
3
90
7
90
5
90
4
90
3
90
1
90
2
90
3
90
3
90
5
90
7
90
6
90
4
90
1
90
0
90
4
90
5
90
4
90
2
90
1
90
5
90
6
90
4
90
3
90
2
90
6
90
7
90
4
90
0
90
3
90
7
90
4
94
0
95
0
0
LWPOLYLINE
  5
139b
330
1F
  100
AcDbEntity
8
paths
  100
AcDbPolyline
70
0
38
0.0000
90
20
10
10.3696
20
378.7932
10
10.4765
20
377.9946
10
13.1584
20
371.2355
10
14.7174
20
367.4558
10
30.0421
20
330.1006
10
38.0749
20
308.5764
10
43.0158
20
277.8672
10
40.4098
20
246.5877
10
37.6516
20
214.0049
10
37.1288
20
207.9079
10
36.4414
20
199.8004
10
35.8191
20
192.4266
10
35.6518
20
190.4299
10
29.6437
20
136.5226
10
28.6681
20
131.3649
10
26.1288
20
116.4859
10
18.8145
20
69.9693
10
18.1323
20
64.6917
10
11.9898
20
17.8909
10
11.6668
20
15.3679
0
LWPOLYLINE
  5
139c
330
1F
  100
AcDbEntity
8
major_roads
  100
AcDbPolyline
70
0
38
0.0000
90
9
10
339.0091
20
179.2387
10
327.8997
20
180.3935
10
323.4098
20
180.8464
10
315.2571
20
181.6898
10
308.1183
20
182.4394
10
241.5516
20
189.6330
10
191.8171
20
194.6129
10
181.2737
20
195.6628
10
158.2119
20
197.9763
0
LWPOLYLINE
  5
139d
330
1F
  100
AcDbEntity
8
parks
  100
AcDbPolyline
70
0
38
0.0000
90
17
10
6.7731
20
250.9061
10
8.4100
20
309.2794
10
10.4007
20
306.2340
10
12.6307
20
302.4106
10
14.3221
20
298.6954
10
16.0103
20
294.3381
10
16.8621
20
290.5813
10
17.7619
20
286.4229
10
18.1947
20
282.2776
10
18.0768
20
278.0732
10
17.8302
20
274.5706
10
17.1468
20
270.8383
10
16.2175
20
267.5969
10
15.1995
20
264.8979
10
13.7461
20
261.4851
10
11.9345
20
258.2684
10
6.7731
20
250.9061
0
LWPOLYLINE
  5
139e
330
1F
  100
AcDbEntity
8
railways
  100
AcDbPolyline
70
0
38
0.0000
90
6
10
300.7731
20
124.0456
10
148.2076
20
139.4429
10
137.3875
20
140.1468
10
127.5106
20
140.3587
10
117.1208
20
140.2686
10
105.3015
20
140.0044
0
LWPOLYLINE
  5
139f
330
1F
  100
AcDbEntity
8
railways
  100
AcDbPolyline
70
0
38
0.0000
90
3
10
3.0698
20
118.8449
10
26.1288
20
116.4859
10
296.0184
20
88.9446
0
LWPOLYLINE
  5
13a0
330
1F
  100
AcDbEntity
8
paths
  100
AcDbPolyline
70
0
38
0.0000
90
3
10
3.6512
20
139.5788
10
7.7555
20
140.1991
10
16.7774
20
140.9887
0
LWPOLYLINE
  5
13a1
330
1F
  100
AcDbEntity
8
paths
  100
AcDbPolyline
70
0
38
0.0000
90
5
10
164.4579
20
49.3415
10
164.0224
20
44.1314
10
162.3680
20
24.5731
10
160.8491
20
6.6680
10
160.6975
20
4.8627
0
LWPOLYLINE
  5
13a2
330
1F
  100
AcDbEntity
8
paths
  100
AcDbPolyline
70
0
38
0.0000
90
7
10
290.4094
20
1.2226
10
291.2067
20
11.1170
10
292.6878
20
29.5165
10
293.0765
20
34.3742
10
229.4107
20
41.7842
10
197.1525
20
45.5381
10
164.4579
20
49.3415
  0
MESH
  5
13a3
330
1F
  100
AcDbEntity
8
buildings
  100
AcDbSubDMesh
71
2
72
0
91
0
92
12
10
51.0920
20
75.3662
30
3.0000
10
51.6439
20
80.2286
30
3.0000
10
43.3380
20
81.1598
30
3.0000
10
43.6815
20
84.1476
30
3.0000
10
36.5364
20
84.9345
30
3.0000
10
35.6630
20
77.0743
30
3.0000
10
51.0920
20
75.3662
30
0.0000
10
51.6439
20
80.2286
30
0.0000
10
43.3380
20
81.1598
30
0.0000
10
43.6815
20
84.1476
30
0.0000
10
36.5364
20
84.9345
30
0.0000
10
35.6630
20
77.0743
30
0.0000
93
62
90
3
90
5
90
2
90
4
90
3
90
11
90
10
90
8
90
3
90
2
90
5
90
0
90
3
90
8
90
6
90
11
90
3
90
4
90
2
90
3
90
3
90
10
90
9
90
8
90
3
90
1
90
2
90
0
90
3
90
7
90
6
90
8
90
4
90
1
90
0
90
6
90
7
90
4
90
2
90
1
90
7
90
8
90
4
90
3
90
2
90
8
90
9
90
4
90
4
90
3
90
9
90
10
90
4
90
5
90
4
90
10
90
11
90
4
90
0
90
5
90
11
90
6
94
0
95
0
0
LWPOLYLINE
  5
13a4
330
1F
  100
AcDbEntity
8
paths
  100
AcDbPolyline
70
0
38
0.0000
90
5
10
164.0224
20
44.1314
10
187.8049
20
26.8009
10
186.1612
20
22.9558
10
186.8192
20
16.7935
10
160.8491
20
6.6680
0
LWPOLYLINE
  5
13a5
330
1F
  100
AcDbEntity
8
paths
  100
AcDbPolyline
70
0
38
0.0000
90
4
10
282.3263
20
54.2156
10
291.4578
20
53.0934
10
293.1061
20
52.8703
10
301.0588
20
52.0419
  0
MESH
  5
13a6
330
1F
  100
AcDbEntity
8
buildings
  100
AcDbSubDMesh
71
2
72
0
91
0
92
6
10
7.7268
20
175.4250
30
3.0000
10
4.7144
20
177.4924
30
3.0000
10
4.5266
20
170.7940
30
3.0000
10
7.7268
20
175.4250
30
0.0000
10
4.7144
20
177.4924
30
0.0000
10
4.5266
20
170.7940
30
0.0000
93
23
90
3
90
2
90
0
90
1
90
3
90
5
90
4
90
3
90
4
90
1
90
0
90
3
90
4
90
4
90
2
90
1
90
4
90
5
90
4
90
0
90
2
90
5
90
3
94
0
95
0
  0
MESH
  5
13a7
330
1F
  100
AcDbEntity
8
buildings
  100
AcDbSubDMesh
71
2
72
0
91
0
92
8
10
102.4029
20
160.4537
30
3.0000
10
103.1914
20
170.8390
30
3.0000
10
95.0767
20
171.4484
30
3.0000
10
94.2811
20
161.0726
30
3.0000
10
102.4029
20
160.4537
30
0.0000
10
103.1914
20
170.8390
30
0.0000
10
95.0767
20
171.4484
30
0.0000
10
94.2811
20
161.0726
30
0.0000
93
36
90
3
90
2
90
3
90
0
90
3
90
6
90
4
90
7
90
3
90
0
90
1
90
2
90
3
90
4
90
6
90
5
90
4
90
1
90
0
90
4
90
5
90
4
90
2
90
1
90
5
90
6
90
4
90
3
90
2
90
6
90
7
90
4
90
0
90
3
90
7
90
4
94
0
95
0
0
LWPOLYLINE
  5
13a8
330
1F
  100
AcDbEntity
8
paths
  100
AcDbPolyline
70
0
38
0.0000
90
3
10
275.1161
20
164.4688
10
270.5318
20
119.0486
10
269.4135
20
108.0210
  0
MESH
  5
13a9
330
1F
  100
AcDbEntity
8
buildings
  100
AcDbSubDMesh
71
2
72
0
91
0
92
10
10
276.8423
20
158.0344
30
3.0000
10
277.5198
20
164.1965
30
3.0000
10
275.1161
20
164.4688
30
3.0000
10
267.6969
20
165.2729
30
3.0000
10
267.0194
20
159.1107
30
3.0000
10
276.8423
20
158.0344
30
0.0000
10
277.5198
20
164.1965
30
0.0000
10
275.1161
20
164.4688
30
0.0000
10
267.6969
20
165.2729
30
0.0000
10
267.0194
20
159.1107
30
0.0000
93
49
90
3
90
3
90
4
90
2
90
3
90
8
90
7
90
9
90
3
90
2
90
0
90
1
90
3
90
7
90
6
90
5
90
3
90
0
90
2
90
4
90
3
90
5
90
9
90
7
90
4
90
1
90
0
90
5
90
6
90
4
90
2
90
1
90
6
90
7
90
4
90
3
90
2
90
7
90
8
90
4
90
4
90
3
90
8
90
9
90
4
90
0
90
4
90
9
90
5
94
0
95
0
0
LWPOLYLINE
  5
13aa
330
1F
  100
AcDbEntity
8
minor_roads
  100
AcDbPolyline
70
0
38
0.0000
90
2
10
3.7984
20
144.8275
10
17.6188
20
146.9135
0
LWPOLYLINE
  5
13ab
330
1F
  100
AcDbEntity
8
major_roads
  100
AcDbPolyline
70
0
38
0.0000
90
5
10
4.2263
20
12.7653
10
4.8162
20
16.0720
10
5.2924
20
18.7676
10
13.5394
20
65.2114
10
14.4650
20
70.4357
0
LWPOLYLINE
  5
13ac
330
1F
  100
AcDbEntity
8
major_roads
  100
AcDbPolyline
70
0
38
0.0000
90
3
10
10.3360
20
377.9642
10
10.4765
20
377.9946
10
13.6969
20
378.6998
0
LWPOLYLINE
  5
13ad
330
1F
  100
AcDbEntity
8
major_roads
  100
AcDbPolyline
70
0
38
0.0000
90
2
10
3.9033
20
9.2629
10
4.2258
20
12.7467
0
LWPOLYLINE
  5
13ae
330
1F
  100
AcDbEntity
8
major_roads
  100
AcDbPolyline
70
0
38
0.0000
90
2
10
0.1071
20
13.1907
10
4.2263
20
12.7653
0
LWPOLYLINE
  5
13af
330
1F
  100
AcDbEntity
8
paths
  100
AcDbPolyline
70
0
38
0.0000
90
4
10
115.4431
20
6.1327
10
11.9898
20
17.8909
10
5.2924
20
18.7676
10
0.3667
20
22.4492
0
LWPOLYLINE
  5
13b0
330
1F
  100
AcDbEntity
8
paths
  100
AcDbPolyline
70
0
38
0.0000
90
3
10
0.7493
20
36.0948
10
0.8457
20
36.9331
10
0.7730
20
36.9400
0
LWPOLYLINE
  5
13b1
330
1F
  100
AcDbEntity
8
major_roads
  100
AcDbPolyline
70
0
38
0.0000
90
5
10
181.2737
20
195.6628
10
179.2678
20
192.9264
10
178.9175
20
190.4880
10
178.8413
20
187.7719
10
179.9096
20
183.2736
0
LWPOLYLINE
  5
13b2
330
1F
  100
AcDbEntity
8
paths
  100
AcDbPolyline
70
0
38
0.0000
90
3
10
259.8294
20
4.2249
10
272.3886
20
3.6303
10
266.4651
20
10.9273
0
LWPOLYLINE
  5
13b3
330
1F
  100
AcDbEntity
8
paths
  100
AcDbPolyline
70
0
38
0.0000
90
2
10
272.3886
20
3.6303
10
275.5598
20
1.6393
0
LWPOLYLINE
  5
13b4
330
1F
  100
AcDbEntity
8
railways
  100
AcDbPolyline
70
0
38
0.0000
90
7
10
79.2189
20
135.1321
10
117.4177
20
135.5127
10
125.3614
20
135.4201
10
133.0970
20
135.3148
10
140.4268
20
134.7647
10
148.2265
20
134.0338
10
299.8718
20
118.6345
0
LWPOLYLINE
  5
13b5
330
1F
  100
AcDbEntity
8
minor_roads
  100
AcDbPolyline
70
0
38
0.0000
90
3
10
33.2230
20
200.1234
10
36.4414
20
199.8004
10
155.7992
20
185.7654
0
LWPOLYLINE
  5
13b6
330
1F
  100
AcDbEntity
8
railways
  100
AcDbPolyline
70
0
38
0.0000
90
6
10
299.8236
20
113.7486
10
101.4032
20
133.8116
10
90.4441
20
134.5845
10
79.2189
20
135.1321
10
68.9659
20
135.1590
10
57.0041
20
134.5730
0
LWPOLYLINE
  5
13b7
330
1F
  100
AcDbEntity
8
railways
  100
AcDbPolyline
70
0
38
0.0000
90
10
10
291.7313
20
137.3507
10
180.8346
20
148.5531
10
173.4060
20
149.0222
10
165.8706
20
149.1220
10
158.8414
20
149.0213
10
150.5773
20
148.5364
10
103.3299
20
144.8352
10
98.2328
20
144.3080
10
29.6437
20
136.5226
10
3.4824
20
133.5590
  0
MESH
  5
13b8
330
1F
  100
AcDbEntity
8
buildings
  100
AcDbSubDMesh
71
2
72
0
91
0
92
32
10
202.3392
20
96.3127
30
3.0000
10
201.7934
20
90.6123
30
3.0000
10
206.0990
20
90.1656
30
3.0000
10
206.7187
20
95.8546
30
3.0000
10
252.7847
20
91.0428
30
3.0000
10
252.2452
20
85.3050
30
3.0000
10
258.3855
20
84.6671
30
3.0000
10
259.2467
20
94.2033
30
3.0000
10
274.7300
20
92.5771
30
3.0000
10
289.0671
20
91.0854
30
3.0000
10
290.6230
20
105.8057
30
3.0000
10
269.4135
20
108.0210
30
3.0000
10
257.5624
20
109.2660
30
3.0000
10
257.9473
20
112.9322
30
3.0000
10
182.4974
20
120.8215
30
3.0000
10
180.1681
20
98.6291
30
3.0000
10
202.3392
20
96.3127
30
0.0000
10
201.7934
20
90.6123
30
0.0000
10
206.0990
20
90.1656
30
0.0000
10
206.7187
20
95.8546
30
0.0000
10
252.7847
20
91.0428
30
0.0000
10
252.2452
20
85.3050
30
0.0000
10
258.3855
20
84.6671
30
0.0000
10
259.2467
20
94.2033
30
0.0000
10
274.7300
20
92.5771
30
0.0000
10
289.0671
20
91.0854
30
0.0000
10
290.6230
20
105.8057
30
0.0000
10
269.4135
20
108.0210
30
0.0000
10
257.5624
20
109.2660
30
0.0000
10
257.9473
20
112.9322
30
0.0000
10
182.4974
20
120.8215
30
0.0000
10
180.1681
20
98.6291
30
0.0000
93
192
90
3
90
3
90
1
90
2
90
3
90
19
90
18
90
17
90
3
90
4
90
5
90
6
90
3
90
20
90
22
90
21
90
3
90
14
90
15
90
0
90
3
90
30
90
16
90
31
90
3
90
0
90
3
90
14
90
3
90
16
90
30
90
19
90
3
90
1
90
3
90
0
90
3
90
17
90
16
90
19
90
3
90
13
90
14
90
3
90
3
90
29
90
19
90
30
90
3
90
3
90
4
90
12
90
3
90
19
90
28
90
20
90
3
90
7
90
12
90
4
90
3
90
23
90
20
90
28
90
3
90
7
90
8
90
11
90
3
90
23
90
27
90
24
90
3
90
10
90
8
90
9
90
3
90
26
90
25
90
24
90
3
90
12
90
13
90
3
90
3
90
28
90
19
90
29
90
3
90
10
90
11
90
8
90
3
90
26
90
24
90
27
90
3
90
12
90
7
90
11
90
3
90
28
90
27
90
23
90
3
90
7
90
4
90
6
90
3
90
23
90
22
90
20
90
4
90
1
90
0
90
16
90
17
90
4
90
2
90
1
90
17
90
18
90
4
90
3
90
2
90
18
90
19
90
4
90
4
90
3
90
19
90
20
90
4
90
5
90
4
90
20
90
21
90
4
90
6
90
5
90
21
90
22
90
4
90
7
90
6
90
22
90
23
90
4
90
8
90
7
90
23
90
24
90
4
90
9
90
8
90
24
90
25
90
4
90
10
90
9
90
25
90
26
90
4
90
11
90
10
90
26
90
27
90
4
90
12
90
11
90
27
90
28
90
4
90
13
90
12
90
28
90
29
90
4
90
14
90
13
90
29
90
30
90
4
90
15
90
14
90
30
90
31
90
4
90
0
90
15
90
31
90
16
94
0
95
0
0
LWPOLYLINE
  5
13b9
330
1F
  100
AcDbEntity
8
minor_roads
  100
AcDbPolyline
70
0
38
0.0000
90
5
10
172.7185
20
129.0179
10
258.1766
20
120.3078
10
270.5318
20
119.0486
10
300.1992
20
116.0281
10
307.7828
20
115.2659
0
LWPOLYLINE
  5
13ba
330
1F
  100
AcDbEntity
8
parks
  100
AcDbPolyline
70
0
38
0.0000
90
4
10
1.1497
20
50.3734
10
1.6807
20
69.3092
10
4.4521
20
68.9665
10
1.1497
20
50.3734
  0
MESH
  5
13bb
330
1F
  100
AcDbEntity
8
buildings
  100
AcDbSubDMesh
71
2
72
0
91
0
92
8
10
107.3129
20
69.1533
30
3.0000
10
107.7837
20
74.2972
30
3.0000
10
100.0594
20
75.3331
30
3.0000
10
99.5983
20
70.0027
30
3.0000
10
107.3129
20
69.1533
30
0.0000
10
107.7837
20
74.2972
30
0.0000
10
100.0594
20
75.3331
30
0.0000
10
99.5983
20
70.0027
30
0.0000
93
36
90
3
90
2
90
3
90
1
90
3
90
6
90
5
90
7
90
3
90
0
90
1
90
3
90
3
90
4
90
7
90
5
90
4
90
1
90
0
90
4
90
5
90
4
90
2
90
1
90
5
90
6
90
4
90
3
90
2
90
6
90
7
90
4
90
0
90
3
90
7
90
4
94
0
95
0
  0
MESH
  5
13bc
330
1F
  100
AcDbEntity
8
buildings
  100
AcDbSubDMesh
71
2
72
0
91
0
92
8
10
60.5379
20
148.6700
30
3.0000
10
67.9971
20
148.4980
30
3.0000
10
68.2188
20
157.9870
30
3.0000
10
60.7522
20
158.1592
30
3.0000
10
60.5379
20
148.6700
30
0.0000
10
67.9971
20
148.4980
30
0.0000
10
68.2188
20
157.9870
30
0.0000
10
60.7522
20
158.1592
30
0.0000
93
36
90
3
90
3
90
0
90
2
90
3
90
7
90
6
90
4
90
3
90
1
90
2
90
0
90
3
90
5
90
4
90
6
90
4
90
1
90
0
90
4
90
5
90
4
90
2
90
1
90
5
90
6
90
4
90
3
90
2
90
6
90
7
90
4
90
0
90
3
90
7
90
4
94
0
95
0
0
LWPOLYLINE
  5
13bd
330
1F
  100
AcDbEntity
8
paths
  100
AcDbPolyline
70
0
38
0.0000
90
7
10
48.9028
20
320.3092
10
49.4240
20
331.2233
10
50.9484
20
343.2450
10
53.7062
20
351.6295
10
55.8725
20
358.2339
10
58.2274
20
365.7454
10
57.6519
20
370.0902
0
LWPOLYLINE
  5
13be
330
1F
  100
AcDbEntity
8
major_roads
  100
AcDbPolyline
70
0
38
0.0000
90
2
10
4.2261
20
12.7560
10
49.4698
20
7.9841
0
LWPOLYLINE
  5
13bf
330
1F
  100
AcDbEntity
8
major_roads
  100
AcDbPolyline
70
0
38
0.0000
90
8
10
155.7992
20
185.7654
10
179.9096
20
183.2736
10
264.0415
20
174.6100
10
303.5459
20
170.5377
10
306.8691
20
170.1867
10
313.9642
20
169.4661
10
321.6948
20
168.6533
10
338.6628
20
166.9067
0
LWPOLYLINE
  5
13c0
330
1F
  100
AcDbEntity
8
paths
  100
AcDbPolyline
70
0
38
0.0000
90
3
10
341.9272
20
283.1526
10
332.1200
20
284.1457
10
325.2541
20
284.8412
0
LWPOLYLINE
  5
13c1
330
1F
  100
AcDbEntity
8
paths
  100
AcDbPolyline
70
0
38
0.0000
90
5
10
111.0865
20
344.3601
10
104.3596
20
347.3694
10
69.3042
20
363.0702
10
57.6519
20
370.0902
10
50.9653
20
375.3325
0
LWPOLYLINE
  5
13c2
330
1F
  100
AcDbEntity
8
paths
  100
AcDbPolyline
70
0
38
0.0000
90
4
10
134.4077
20
209.7963
10
113.8823
20
208.3708
10
95.8648
20
209.5930
10
78.2825
20
209.1367
0
LWPOLYLINE
  5
13c3
330
1F
  100
AcDbEntity
8
parks
  100
AcDbPolyline
70
0
38
0.0000
90
8
10
291.9079
20
1.1806
10
158.8553
20
4.9144
10
159.7112
20
14.5009
10
160.7712
20
52.8055
10
296.2745
20
38.8737
10
294.5394
20
23.8512
10
292.8365
20
9.1815
10
291.9079
20
1.1806
0
LWPOLYLINE
  5
13c4
330
1F
  100
AcDbEntity
8
minor_roads
  100
AcDbPolyline
70
0
38
0.0000
90
3
10
274.5619
20
348.4950
10
274.1242
20
341.8886
10
272.9834
20
325.8347
0
LWPOLYLINE
  5
13c5
330
1F
  100
AcDbEntity
8
minor_roads
  100
AcDbPolyline
70
0
38
0.0000
90
2
10
336.5561
20
91.8906
10
318.4117
20
93.4823
0
LWPOLYLINE
  5
13c6
330
1F
  100
AcDbEntity
8
paths
  100
AcDbPolyline
70
0
38
0.0000
90
6
10
154.4760
20
179.5935
10
263.3165
20
167.8162
10
306.1603
20
163.1783
10
313.1703
20
162.4266
10
320.7104
20
161.6061
10
338.4600
20
159.6858
0
LWPOLYLINE
  5
13c7
330
1F
  100
AcDbEntity
8
paths
  100
AcDbPolyline
70
0
38
0.0000
90
7
10
332.1200
20
284.1457
10
332.2464
20
278.3427
10
331.7012
20
272.1396
10
323.9178
20
184.4068
10
323.4159
20
180.8526
10
321.7015
20
168.6618
10
320.7104
20
161.6061
0
LWPOLYLINE
  5
13c8
330
1F
  100
AcDbEntity
8
major_roads
  100
AcDbPolyline
70
0
38
0.0000
90
4
10
155.8669
20
55.4472
10
155.7132
20
49.9685
10
154.7470
20
14.7426
10
153.8698
20
5.0543
0
LWPOLYLINE
  5
13c9
330
1F
  100
AcDbEntity
8
major_roads
  100
AcDbPolyline
70
0
38
0.0000
90
8
10
155.8669
20
55.4472
10
154.1773
20
178.2055
10
154.4760
20
179.5935
10
155.7992
20
185.7654
10
158.2119
20
197.9763
10
158.4946
20
201.4406
10
166.2615
20
295.5225
10
173.7918
20
374.2074
0
LWPOLYLINE
  5
13ca
330
1F
  100
AcDbEntity
8
paths
  100
AcDbPolyline
70
0
38
0.0000
90
4
10
334.5677
20
21.0822
10
332.1146
20
21.3252
10
329.2140
20
21.6022
10
302.8588
20
24.1947
  0
MESH
  5
13cb
330
1F
  100
AcDbEntity
8
buildings
  100
AcDbSubDMesh
71
2
72
0
91
0
92
24
10
252.1376
20
62.7058
30
3.0000
10
258.7732
20
62.0075
30
3.0000
10
286.0627
20
59.1282
30
3.0000
10
288.4343
20
81.4963
30
3.0000
10
273.7279
20
83.0449
30
3.0000
10
258.3855
20
84.6671
30
3.0000
10
252.2452
20
85.3050
30
3.0000
10
206.0990
20
90.1656
30
3.0000
10
201.7934
20
90.6123
30
3.0000
10
184.7715
20
92.4026
30
3.0000
10
182.5801
20
71.6864
30
3.0000
10
182.4078
20
70.0436
30
3.0000
10
252.1376
20
62.7058
30
0.0000
10
258.7732
20
62.0075
30
0.0000
10
286.0627
20
59.1282
30
0.0000
10
288.4343
20
81.4963
30
0.0000
10
273.7279
20
83.0449
30
0.0000
10
258.3855
20
84.6671
30
0.0000
10
252.2452
20
85.3050
30
0.0000
10
206.0990
20
90.1656
30
0.0000
10
201.7934
20
90.6123
30
0.0000
10
184.7715
20
92.4026
30
0.0000
10
182.5801
20
71.6864
30
0.0000
10
182.4078
20
70.0436
30
0.0000
93
140
90
3
90
10
90
11
90
7
90
3
90
22
90
19
90
23
90
3
90
7
90
11
90
0
90
3
90
19
90
12
90
23
90
3
90
8
90
9
90
10
90
3
90
20
90
22
90
21
90
3
90
7
90
8
90
10
90
3
90
19
90
22
90
20
90
3
90
0
90
6
90
7
90
3
90
12
90
19
90
18
90
3
90
4
90
1
90
2
90
3
90
16
90
14
90
13
90
3
90
4
90
2
90
3
90
3
90
16
90
15
90
14
90
3
90
5
90
6
90
0
90
3
90
17
90
12
90
18
90
3
90
5
90
1
90
4
90
3
90
17
90
16
90
13
90
3
90
5
90
0
90
1
90
3
90
17
90
13
90
12
90
4
90
1
90
0
90
12
90
13
90
4
90
2
90
1
90
13
90
14
90
4
90
3
90
2
90
14
90
15
90
4
90
4
90
3
90
15
90
16
90
4
90
5
90
4
90
16
90
17
90
4
90
6
90
5
90
17
90
18
90
4
90
7
90
6
90
18
90
19
90
4
90
8
90
7
90
19
90
20
90
4
90
9
90
8
90
20
90
21
90
4
90
10
90
9
90
21
90
22
90
4
90
11
90
10
90
22
90
23
90
4
90
0
90
11
90
23
90
12
94
0
95
0
0
LWPOLYLINE
  5
13cc
330
1F
  100
AcDbEntity
8
paths
  100
AcDbPolyline
70
0
38
0.0000
90
4
10
303.6972
20
33.4429
10
302.8588
20
24.1947
10
301.6077
20
8.7025
10
300.9829
20
0.9259
0
LWPOLYLINE
  5
13cd
330
1F
  100
AcDbEntity
8
paths
  100
AcDbPolyline
70
0
38
0.0000
90
2
10
326.5909
20
31.2362
10
329.2140
20
21.6022
0
LWPOLYLINE
  5
13ce
330
1F
  100
AcDbEntity
8
paths
  100
AcDbPolyline
70
0
38
0.0000
90
5
10
334.8285
20
30.3686
10
326.5909
20
31.2362
10
303.6972
20
33.4429
10
299.0857
20
34.0937
10
293.0765
20
34.3742
0
LWPOLYLINE
  5
13cf
330
1F
  100
AcDbEntity
8
water
  100
AcDbPolyline
70
0
38
0.0000
90
50
10
51.6820
20
310.4103
10
54.7290
20
318.7867
10
59.1906
20
328.1288
10
67.8232
20
333.5465
10
80.2713
20
337.7029
10
92.6057
20
340.1868
10
109.4611
20
341.4361
10
125.1632
20
338.3333
10
137.0281
20
335.1891
10
148.3652
20
329.6300
10
153.8955
20
325.2300
10
155.8190
20
320.2702
10
156.3007
20
314.1686
10
154.8791
20
299.2024
10
152.0314
20
281.2695
10
150.6039
20
266.3593
10
149.1679
20
247.9679
10
147.0400
20
233.2170
10
144.0632
20
226.0209
10
131.5056
20
218.7492
10
110.0797
20
215.3754
10
81.4985
20
214.5481
10
62.0946
20
215.2785
10
56.2548
20
218.9611
10
53.4958
20
226.1413
10
54.6053
20
234.2182
10
55.6227
20
241.9254
10
54.1050
20
256.0618
10
53.6356
20
264.1924
10
54.2076
20
277.1809
10
53.1713
20
287.8501
10
52.6233
20
297.1466
10
64.9411
20
297.4527
10
66.8468
20
290.7992
10
73.2425
20
289.4748
10
82.5519
20
289.6605
10
89.2799
20
286.9584
10
94.9219
20
286.0088
10
102.5245
20
288.8303
10
109.7918
20
294.7703
10
113.6810
20
304.6032
10
111.8843
20
314.6142
10
108.2700
20
320.1334
10
101.6338
20
322.9354
10
84.2919
20
316.7752
10
76.2890
20
311.5912
10
67.4596
20
307.0913
10
64.9006
20
299.1853
10
52.4095
20
298.7816
10
51.6820
20
310.4103
0
LWPOLYLINE
  5
13d0
330
1F
  100
AcDbEntity
8
parks
  100
AcDbPolyline
70
0
38
0.0000
90
13
10
49.2074
20
377.7033
10
167.8589
20
374.3738
10
153.8128
20
206.1985
10
144.8008
20
197.5706
10
45.8808
20
206.7408
10
39.8903
20
217.4838
10
44.3405
20
260.8133
10
44.7514
20
275.4633
10
44.1762
20
284.5836
10
42.8899
20
293.4819
10
41.1451
20
303.2307
10
46.6706
20
373.5260
10
49.2074
20
377.7033
  0
MESH
  5
13d1
330
1F
  100
AcDbEntity
8
buildings
  100
AcDbSubDMesh
71
2
72
0
91
0
92
8
10
59.9987
20
95.5868
30
3.0000
10
60.4650
20
99.7814
30
3.0000
10
57.7357
20
100.0814
30
3.0000
10
57.2622
20
95.8963
30
3.0000
10
59.9987
20
95.5868
30
0.0000
10
60.4650
20
99.7814
30
0.0000
10
57.7357
20
100.0814
30
0.0000
10
57.2622
20
95.8963
30
0.0000
93
36
90
3
90
2
90
3
90
0
90
3
90
6
90
4
90
7
90
3
90
0
90
1
90
2
90
3
90
4
90
6
90
5
90
4
90
1
90
0
90
4
90
5
90
4
90
2
90
1
90
5
90
6
90
4
90
3
90
2
90
6
90
7
90
4
90
0
90
3
90
7
90
4
94
0
95
0
0
LWPOLYLINE
  5
13d2
330
1F
  100
AcDbEntity
8
paths
  100
AcDbPolyline
70
0
38
0.0000
90
2
10
332.1146
20
21.3252
10
334.4364
20
16.4078
  0
MESH
  5
13d3
330
1F
  100
AcDbEntity
8
buildings
  100
AcDbSubDMesh
71
2
72
0
91
0
92
6
10
13.8929
20
237.8827
30
3.0000
10
6.5496
20
242.9366
30
3.0000
10
6.0930
20
226.6523
30
3.0000
10
13.8929
20
237.8827
30
0.0000
10
6.5496
20
242.9366
30
0.0000
10
6.0930
20
226.6523
30
0.0000
93
23
90
3
90
2
90
0
90
1
90
3
90
5
90
4
90
3
90
4
90
1
90
0
90
3
90
4
90
4
90
2
90
1
90
4
90
5
90
4
90
0
90
2
90
5
90
3
94
0
95
0
0
LWPOLYLINE
  5
13d4
330
1F
  100
AcDbEntity
8
paths
  100
AcDbPolyline
70
0
38
0.0000
90
5
10
147.0959
20
334.6366
10
150.5648
20
348.2607
10
154.8445
20
365.3995
10
153.6395
20
373.2249
10
152.5439
20
374.8036
0
LWPOLYLINE
  5
13d5
330
1F
  100
AcDbEntity
8
paths
  100
AcDbPolyline
70
0
38
0.0000
90
7
10
123.3312
20
375.6233
10
119.7012
20
373.4696
10
115.5686
20
370.0388
10
114.9213
20
364.1551
10
115.4614
20
357.7540
10
118.9139
20
353.8684
10
123.1378
20
352.0929
0
LWPOLYLINE
  5
13d6
330
1F
  100
AcDbEntity
8
paths
  100
AcDbPolyline
70
0
38
0.0000
90
2
10
115.5686
20
370.0388
10
104.3596
20
347.3694
0
LWPOLYLINE
  5
13d7
330
1F
  100
AcDbEntity
8
parks
  100
AcDbPolyline
70
0
38
0.0000
90
5
10
276.6048
20
128.1685
10
280.1277
20
160.3625
10
300.9500
20
158.0929
10
297.4267
20
125.8897
10
276.6048
20
128.1685
0
LWPOLYLINE
  5
13d8
330
1F
  100
AcDbEntity
8
minor_roads
  100
AcDbPolyline
70
0
38
0.0000
90
2
10
316.2444
20
77.8668
10
336.1159
20
76.2144
0
LWPOLYLINE
  5
13d9
330
1F
  100
AcDbEntity
8
major_roads
  100
AcDbPolyline
70
0
38
0.0000
90
20
10
14.4650
20
70.4357
10
24.7437
20
130.9274
10
26.8958
20
147.0071
10
32.1675
20
190.7975
10
32.3870
20
192.8021
10
33.2230
20
200.1234
10
34.1423
20
208.2988
10
38.2140
20
248.4552
10
39.2778
20
260.7225
10
39.6303
20
269.3234
10
39.5458
20
276.3634
10
39.2141
20
283.8478
10
38.4780
20
291.4645
10
37.1726
20
298.3618
10
35.4500
20
305.1964
10
33.3920
20
311.9752
10
31.3553
20
317.1336
10
28.9942
20
322.8969
10
12.3459
20
360.2551
10
9.9990
20
365.9460
0
LWPOLYLINE
  5
13da
330
1F
  100
AcDbEntity
8
minor_roads
  100
AcDbPolyline
70
0
38
0.0000
90
2
10
246.4998
20
372.1671
10
244.2910
20
344.8485
0
LWPOLYLINE
  5
13db
330
1F
  100
AcDbEntity
8
major_roads
  100
AcDbPolyline
70
0
38
0.0000
90
5
10
299.8410
20
40.6447
10
155.8669
20
55.4472
10
18.8145
20
69.9693
10
14.4650
20
70.4357
10
1.7566
20
72.0125
0
LWPOLYLINE
  5
13dc
330
1F
  100
AcDbEntity
8
major_roads
  100
AcDbPolyline
70
0
38
0.0000
90
4
10
335.0154
20
37.0238
10
308.0306
20
39.8003
10
304.3539
20
40.1828
10
299.8410
20
40.6447
0
LWPOLYLINE
  5
13dd
330
1F
  100
AcDbEntity
8
minor_roads
  100
AcDbPolyline
70
0
38
0.0000
90
2
10
314.3215
20
63.2871
10
335.0726
20
61.4011
0
LWPOLYLINE
  5
13de
330
1F
  100
AcDbEntity
8
paths
  100
AcDbPolyline
70
0
38
0.0000
90
2
10
50.9653
20
375.3325
10
67.1596
20
377.1996
0
LWPOLYLINE
  5
13df
330
1F
  100
AcDbEntity
8
minor_roads
  100
AcDbPolyline
70
0
38
0.0000
90
5
10
259.9326
20
136.6051
10
174.3371
20
145.1887
10
172.7185
20
129.0179
10
169.4809
20
96.6670
10
191.7077
20
94.2186
0
LWPOLYLINE
  5
13e0
330
1F
  100
AcDbEntity
8
paths
  100
AcDbPolyline
70
0
38
0.0000
90
2
10
47.4776
20
215.7909
10
37.6516
20
214.0049
0
LWPOLYLINE
  5
13e1
330
1F
  100
AcDbEntity
8
parks
  100
AcDbPolyline
70
0
38
0.0000
90
5
10
110.9310
20
21.7249
10
112.2978
20
38.4427
10
141.2712
20
36.0845
10
139.9044
20
19.3667
10
110.9310
20
21.7249
0
LWPOLYLINE
  5
13e2
330
1F
  100
AcDbEntity
8
paths
  100
AcDbPolyline
70
0
38
0.0000
90
2
10
186.1612
20
22.9558
10
162.3680
20
24.5731
0
LWPOLYLINE
  5
13e3
330
1F
  100
AcDbEntity
8
paths
  100
AcDbPolyline
70
0
38
0.0000
90
2
10
197.1525
20
45.5381
10
196.4832
20
31.4724
0
LWPOLYLINE
  5
13e4
330
1F
  100
AcDbEntity
8
minor_roads
  100
AcDbPolyline
70
0
38
0.0000
90
3
10
252.3021
20
286.6194
10
241.9205
20
192.9925
10
241.5516
20
189.6330
0
LWPOLYLINE
  5
13e5
330
1F
  100
AcDbEntity
8
paths
  100
AcDbPolyline
70
0
38
0.0000
90
2
10
229.4107
20
41.7842
10
227.8499
20
24.7739
0
LWPOLYLINE
  5
13e6
330
1F
  100
AcDbEntity
8
paths
  100
AcDbPolyline
70
0
38
0.0000
90
2
10
266.2481
20
17.2076
10
292.6878
20
29.5165
0
LWPOLYLINE
  5
13e7
330
1F
  100
AcDbEntity
8
paths
  100
AcDbPolyline
70
0
38
0.0000
90
2
10
267.0302
20
13.3504
10
291.2067
20
11.1170
0
LWPOLYLINE
  5
13e8
330
1F
  100
AcDbEntity
8
paths
  100
AcDbPolyline
70
0
38
0.0000
90
3
10
258.7732
20
62.0075
10
258.3296
20
56.7790
10
282.3263
20
54.2156
0
LWPOLYLINE
  5
13e9
330
1F
  100
AcDbEntity
8
minor_roads
  100
AcDbPolyline
70
0
38
0.0000
90
4
10
264.0415
20
174.6100
10
263.3165
20
167.8162
10
259.9326
20
136.6051
10
258.1766
20
120.3078
0
LWPOLYLINE
  5
13ea
330
1F
  100
AcDbEntity
8
minor_roads
  100
AcDbPolyline
70
0
38
0.0000
90
3
10
335.6986
20
61.3539
10
335.0726
20
61.4011
10
335.9506
20
70.3261
0
LWPOLYLINE
  5
13eb
330
1F
  100
AcDbEntity
8
minor_roads
  100
AcDbPolyline
70
0
38
0.0000
90
2
10
337.1193
20
111.9444
10
307.7828
20
115.2659
0
LWPOLYLINE
  5
13ec
330
1F
  100
AcDbEntity
8
parks
  100
AcDbPolyline
70
0
38
0.0000
90
8
10
334.9231
20
33.7385
10
333.9756
20
0.0000
10
298.5276
20
0.9948
10
299.3312
20
7.9565
10
301.0035
20
22.3292
10
302.7080
20
37.0547
10
310.2613
20
36.2747
10
334.9231
20
33.7385
0
LWPOLYLINE
  5
13ed
330
1F
  100
AcDbEntity
8
paths
  100
AcDbPolyline
70
0
38
0.0000
90
3
10
53.7062
20
351.6295
10
65.9172
20
360.5587
10
69.3042
20
363.0702
0
LWPOLYLINE
  5
13ee
330
1F
  100
AcDbEntity
8
paths
  100
AcDbPolyline
70
0
38
0.0000
90
2
10
65.0541
20
298.3060
10
68.9186
20
298.5327
0
LWPOLYLINE
  5
13ef
330
1F
  100
AcDbEntity
8
paths
  100
AcDbPolyline
70
0
38
0.0000
90
15
10
68.9186
20
298.5327
10
74.5799
20
296.9496
10
84.5044
20
295.2563
10
94.2171
20
294.7418
10
101.6190
20
295.9584
10
105.5009
20
298.9215
10
107.0572
20
303.6161
10
106.7342
20
309.2943
10
103.2558
20
311.9891
10
99.0046
20
313.0579
10
93.9966
20
312.0068
10
87.7415
20
309.3523
10
80.2817
20
305.5401
10
75.2269
20
303.0847
10
68.9186
20
298.5327
0
LWPOLYLINE
  5
13f0
330
1F
  100
AcDbEntity
8
paths
  100
AcDbPolyline
70
0
38
0.0000
90
6
10
46.0747
20
228.7325
10
49.5473
20
234.2949
10
50.1783
20
239.0714
10
49.7109
20
265.2613
10
49.0030
20
289.7544
10
47.0975
20
294.5647
0
LWPOLYLINE
  5
13f1
330
1F
  100
AcDbEntity
8
paths
  100
AcDbPolyline
70
0
38
0.0000
90
5
10
145.0418
20
218.8535
10
137.4610
20
211.2559
10
134.4077
20
209.7963
10
129.0384
20
207.2381
10
114.2196
20
204.5260
0
LWPOLYLINE
  5
13f2
330
1F
  100
AcDbEntity
8
minor_roads
  100
AcDbPolyline
70
0
38
0.0000
90
3
10
191.8171
20
194.6129
10
192.2255
20
198.3250
10
194.6520
20
220.5426
0
LWPOLYLINE
  5
13f3
330
1F
  100
AcDbEntity
8
paths
  100
AcDbPolyline
70
0
38
0.0000
90
2
10
50.9653
20
375.3325
10
14.7174
20
367.4558
0
LWPOLYLINE
  5
13f4
330
1F
  100
AcDbEntity
8
paths
  100
AcDbPolyline
70
0
38
0.0000
90
7
10
158.4946
20
201.4406
10
192.2255
20
198.3250
10
241.9207
20
193.0018
10
308.4698
20
185.9763
10
315.6077
20
185.2366
10
323.9178
20
184.4068
10
339.1123
20
182.9157
0
LWPOLYLINE
  5
13f5
330
1F
  100
AcDbEntity
8
parks
  100
AcDbPolyline
70
0
38
0.0000
90
13
10
4.5266
20
170.7940
10
8.8282
20
324.1916
10
14.1415
20
312.3661
10
16.9006
20
304.6553
10
19.6197
20
295.5215
10
20.9699
20
287.8410
10
21.5419
20
280.1916
10
21.6346
20
272.3881
10
20.8439
20
260.8578
10
14.6372
20
201.4545
10
12.4027
20
183.4206
10
7.7268
20
175.4250
10
4.5266
20
170.7940
0
LWPOLYLINE
  5
13f6
330
1F
  100
AcDbEntity
8
paths
  100
AcDbPolyline
70
0
38
0.0000
90
4
10
0.2078
20
16.7815
10
4.8162
20
16.0720
10
11.6668
20
15.3679
10
95.9547
20
6.6796
0
LWPOLYLINE
  5
13f7
330
1F
  100
AcDbEntity
8
minor_roads
  100
AcDbPolyline
70
0
38
0.0000
90
11
10
332.7067
20
369.7481
10
325.2541
20
284.8412
10
324.7448
20
279.1212
10
324.1514
20
273.0497
10
315.6015
20
185.2361
10
315.2571
20
181.6898
10
313.9642
20
169.4661
10
313.1654
20
162.4230
10
307.7828
20
115.2659
10
301.0588
20
52.0419
10
299.8410
20
40.6447
0
LWPOLYLINE
  5
13f8
330
1F
  100
AcDbEntity
8
minor_roads
  100
AcDbPolyline
70
0
38
0.0000
90
3
10
274.1242
20
341.8886
10
244.2910
20
344.8485
10
210.6918
20
348.1839
0
LWPOLYLINE
  5
13f9
330
1F
  100
AcDbEntity
8
parks
  100
AcDbPolyline
70
0
38
0.0000
90
8
10
149.3536
20
5.1811
10
137.4439
20
5.5153
10
10.1527
20
20.0209
10
18.6010
20
67.6481
10
22.6842
20
67.2078
10
151.3256
20
53.5732
10
150.2608
20
15.3618
10
149.3536
20
5.1811
0
LWPOLYLINE
  5
13fa
330
1F
  100
AcDbEntity
8
major_roads
  100
AcDbPolyline
70
0
38
0.0000
90
20
10
9.3852
20
344.0574
10
19.2150
20
322.1006
10
22.7071
20
313.5408
10
25.9343
20
305.0629
10
27.8764
20
297.5892
10
29.3274
20
290.0642
10
30.1568
20
281.5418
10
30.4689
20
272.8292
10
30.3343
20
264.3246
10
29.4325
20
254.9199
10
24.2326
20
202.0512
10
17.6188
20
146.9135
10
16.7774
20
140.9887
10
13.4814
20
117.6411
10
12.4071
20
112.1418
10
10.9614
20
106.6248
10
8.9118
20
101.7951
10
6.0709
20
97.0621
10
3.4502
20
93.3003
10
2.3161
20
91.9654
0
LWPOLYLINE
  5
13fb
330
1F
  100
AcDbEntity
8
minor_roads
  100
AcDbPolyline
70
0
38
0.0000
90
6
10
341.7645
20
277.3576
10
332.2464
20
278.3427
10
324.7448
20
279.1212
10
318.0051
20
279.8224
10
252.3021
20
286.6194
10
166.2615
20
295.5225
0
LWPOLYLINE
  5
13fc
330
1F
  100
AcDbEntity
8
minor_roads
  100
AcDbPolyline
70
0
38
0.0000
90
4
10
299.8410
20
40.6447
10
299.0857
20
34.0937
10
298.7049
20
30.8370
10
295.2605
20
1.0865
  0
ENDSEC
  0
SECTION
  2
OBJECTS
  0
DICTIONARY
  5
C
330
0
100
AcDbDictionary
281
1
  3
ACAD_COLOR
350
4D3
  3
ACAD_GROUP
350
4D4
  3
ACAD_LAYOUT
350
4D5
  3
ACAD_MATERIAL
350
4D6
  3
ACAD_MLEADERSTYLE
350
4D7
  3
ACAD_MLINESTYLE
350
4D8
  3
ACAD_PLOTSETTINGS
350
4D9
  3
ACAD_PLOTSTYLENAME
350
4DB
  3
ACAD_SCALELIST
350
4DC
  3
ACAD_TABLESTYLE
350
4DD
  3
ACAD_VISUALSTYLE
350
4DE
  0
DICTIONARY
  5
4D3
330
C
100
AcDbDictionary
281
1
  0
DICTIONARY
  5
4D4
330
C
100
AcDbDictionary
281
1
  0
DICTIONARY
  5
4D5
330
C
100
AcDbDictionary
281
1
  3
Model
350
4DF
  3
Layout1
350
4E0
  0
DICTIONARY
  5
4D6
330
C
100
AcDbDictionary
281
1
  0
DICTIONARY
  5
4D7
330
C
100
AcDbDictionary
281
1
  0
DICTIONARY
  5
4D8
330
C
100
AcDbDictionary
281
1
  0
DICTIONARY
  5
4D9
330
C
100
AcDbDictionary
281
1
  0
ACDBPLACEHOLDER
  5
4DA
330
4DB
  0
ACDBDICTIONARYWDFLT
  5
4DB
330
C
100
AcDbDictionary
281
1
  3
Normal
350
4DA
100
AcDbDictionaryWithDefault
340
4DA
  0
DICTIONARY
  5
4DC
330
C
100
AcDbDictionary
281
1
  0
DICTIONARY
  5
4DD
330
C
100
AcDbDictionary
281
1
  0
DICTIONARY
  5
4DE
330
C
100
AcDbDictionary
281
1
  0
LAYOUT
  5
4DF
330
4D5
100
AcDbPlotSettings
  1

  2
DWFx ePlot (XPS Compatible).pc3
  4
ANSI_A_(8.50_x_11.00_Inches)
  6

 40
5.8
 41
17.8
 42
5.8
 43
17.8
 44
215.9
 45
279.4
 46
0.0
 47
0.0
 48
0.0
 49
0.0
140
0.0
141
0.0
142
1.0
143
14.53
 70
11952
 72
0
 73
1
 74
0
  7

 75
0
147
0.069
148
114.98
149
300.29
100
AcDbLayout
  1
Model
 70
1
 71
0
 10
0.0
 20
0.0
 11
12.0
 21
9.0
 12
0.0
 22
0.0
 32
0.0
 14
0.0
 24
0.0
 34
0.0
 15
0.0
 25
0.0
 35
0.0
146
0.0
 13
0.0
 23
0.0
 33
0.0
 16
1.0
 26
0.0
 36
0.0
 17
0.0
 27
1.0
 37
0.0
 76
0
330
1F
  0
LAYOUT
  5
4E0
330
4D5
100
AcDbPlotSettings
  1

  2
DWFx ePlot (XPS Compatible).pc3
  4
ANSI_A_(8.50_x_11.00_Inches)
  6

 40
5.8
 41
17.8
 42
5.8
 43
17.8
 44
215.9
 45
279.4
 46
0.0
 47
0.0
 48
0.0
 49
0.0
140
0.0
141
0.0
142
1.0
143
1.0
 70
688
 72
0
 73
1
 74
5
  7
acad.ctb
 75
16
147
1.0
148
0.0
149
0.0
100
AcDbLayout
  1
Layout1
 70
1
 71
1
 10
-0.7
 20
-0.23
 11
10.3
 21
8.27
 12
0.0
 22
0.0
 32
0.0
 14
0.63
 24
0.8
 34
0.0
 15
9.0
 25
7.2
 35
0.0
146
0.0
 13
0.0
 23
0.0
 33
0.0
 16
1.0
 26
0.0
 36
0.0
 17
0.0
 27
1.0
 37
0.0
 76
0
330
58
  0
ENDSEC
  0
EOF
